<?xml version="1.0" standalone="no"?>
<!DOCTYPE svg PUBLIC "-//W3C//DTD SVG 20010904//EN"
 "http://www.w3.org/TR/2001/REC-SVG-20010904/DTD/svg10.dtd">
<svg version="1.0" xmlns="http://www.w3.org/2000/svg"
 width="428.000000pt" height="428.000000pt" viewBox="0 0 428.000000 428.000000"
 preserveAspectRatio="xMidYMid meet">
<metadata>
Created by potrace 1.15, written by Peter Selinger 2001-2017
</metadata>
<g transform="translate(0.000000,428.000000) scale(0.100000,-0.100000)"
fill="#000000" stroke="none">
<path d="M1995 4244 c-275 -28 -469 -75 -685 -166 -106 -45 -120 -52 -240
-122 -405 -238 -723 -609 -894 -1044 -187 -475 -193 -1033 -16 -1511 272 -738
952 -1273 1730 -1361 118 -14 364 -14 490 -1 371 40 729 185 1045 425 113 85
308 283 397 402 280 376 421 799 421 1269 0 352 -74 659 -230 963 -312 608
-897 1027 -1572 1127 -104 15 -370 27 -446 19z m425 -224 c223 -37 347 -75
540 -167 657 -314 1080 -988 1080 -1718 0 -561 -251 -1099 -679 -1456 -700
-585 -1688 -600 -2406 -37 -75 59 -210 193 -284 283 -488 587 -574 1415 -219
2094 218 418 594 747 1035 907 118 43 262 79 383 98 147 22 400 20 550 -4z"/>
<path d="M1950 3950 c-512 -138 -755 -714 -493 -1168 49 -83 138 -193 173
-212 17 -9 22 -5 40 29 l20 40 -46 48 c-208 218 -258 531 -128 798 116 239
367 395 633 395 370 0 681 -297 699 -666 10 -207 -57 -379 -206 -536 l-45 -46
22 -36 c13 -20 26 -36 30 -36 12 0 127 124 158 170 271 406 128 945 -308 1161
-118 59 -172 71 -329 75 -122 4 -157 1 -220 -16z"/>
<path d="M2006 3735 c-187 -52 -339 -193 -403 -375 -36 -104 -38 -254 -5 -351
35 -101 132 -249 164 -249 4 0 16 17 27 37 l19 37 -34 42 c-19 22 -48 72 -65
110 -27 59 -33 84 -37 169 -3 84 -1 110 18 165 103 309 457 433 725 254 151
-100 236 -293 207 -469 -13 -82 -58 -179 -107 -233 -39 -44 -40 -58 -4 -102
l21 -25 44 50 c156 177 188 430 81 645 -67 135 -217 254 -374 294 -73 19 -209
19 -277 1z"/>
<path d="M2059 3517 c-108 -31 -202 -115 -240 -216 -40 -106 -18 -250 54 -346
14 -19 16 -18 38 27 22 46 22 47 4 85 -62 129 4 297 138 348 72 27 174 18 229
-21 102 -72 143 -174 112 -284 -9 -33 -20 -63 -25 -65 -4 -3 4 -26 18 -50 30
-55 38 -51 79 38 24 52 28 75 29 147 0 74 -4 93 -29 144 -58 119 -163 191
-291 201 -43 3 -88 0 -116 -8z"/>
<path d="M2095 3291 c-22 -10 -48 -32 -57 -49 -20 -34 -23 -93 -7 -123 8 -16
6 -26 -7 -47 -10 -15 -63 -99 -119 -187 -56 -88 -228 -360 -384 -603 -237
-373 -282 -449 -279 -475 3 -30 21 -41 443 -283 242 -139 449 -253 460 -253
11 0 216 111 455 248 466 267 480 276 449 329 -9 15 -192 303 -407 640 l-390
612 15 31 c29 58 -7 137 -73 165 -43 18 -51 17 -99 -5z m-5 -710 c0 -267 -3
-351 -12 -359 -16 -12 -618 -271 -618 -266 0 2 15 28 34 57 19 28 98 153 177
277 78 124 178 281 222 350 44 69 103 162 131 207 28 45 54 82 59 83 4 0 7
-157 7 -349z m196 238 c119 -185 205 -321 299 -469 51 -80 128 -202 173 -272
44 -70 75 -125 69 -122 -7 2 -147 62 -312 133 l-300 129 -3 358 c-1 197 0 355
3 353 3 -3 35 -52 71 -110z m564 -1011 c0 -5 -599 -353 -632 -366 -4 -2 -8
142 -8 321 l0 325 320 -137 c176 -75 320 -139 320 -143z m-760 -48 c0 -176 -3
-320 -6 -320 -16 0 -643 365 -636 371 11 11 615 269 630 269 9 0 12 -71 12
-320z"/>
<path d="M1258 1559 c-11 -6 -18 -22 -18 -41 0 -24 34 -76 153 -237 83 -114
278 -379 432 -589 190 -259 287 -384 303 -388 13 -4 32 -3 42 2 21 10 880
1168 888 1196 7 28 -25 68 -54 68 -30 0 -51 -10 -214 -105 -224 -130 -638
-365 -643 -365 -4 0 -191 106 -417 235 -226 129 -421 235 -433 235 -12 0 -30
-5 -39 -11z m577 -424 c132 -75 243 -142 247 -149 10 -15 10 -426 0 -426 -5 0
-75 91 -157 203 -82 111 -205 277 -272 368 -68 92 -123 170 -123 174 0 4 15
-2 33 -13 17 -11 140 -82 272 -157z m928 163 c-5 -7 -34 -47 -65 -88 -30 -41
-152 -207 -272 -368 l-216 -294 0 224 0 223 78 43 c42 23 165 93 272 156 195
114 221 127 203 104z"/>
</g>
</svg>
